<svg width="48" height="48" viewBox="0 0 48 48" fill="none" xmlns="http://www.w3.org/2000/svg">
<rect width="47.5" height="47.5" rx="14.64" fill="white" fill-opacity="0.07"/>
<path d="M30.4 14H17.6C16.72 14 16 14.72 16 15.6V31.6C16 32.48 16.72 33.2 17.6 33.2H30.4C31.28 33.2 32 32.48 32 31.6V15.6C32 14.72 31.28 14 30.4 14ZM20.8 30C20.8 30.44 20.44 30.8 20 30.8H18.4C17.96 30.8 17.6 30.44 17.6 30V29.6C17.6 29.16 17.96 28.8 18.4 28.8H20C20.44 28.8 20.8 29.16 20.8 29.6V30ZM20.8 26.8C20.8 27.24 20.44 27.6 20 27.6H18.4C17.96 27.6 17.6 27.24 17.6 26.8V26.4C17.6 25.96 17.96 25.6 18.4 25.6H20C20.44 25.6 20.8 25.96 20.8 26.4V26.8ZM20.8 23.6C20.8 24.04 20.44 24.4 20 24.4H18.4C17.96 24.4 17.6 24.04 17.6 23.6V23.2C17.6 22.76 17.96 22.4 18.4 22.4H20C20.44 22.4 20.8 22.76 20.8 23.2V23.6ZM25.6 30C25.6 30.44 25.24 30.8 24.8 30.8H23.2C22.76 30.8 22.4 30.44 22.4 30V29.6C22.4 29.16 22.76 28.8 23.2 28.8H24.8C25.24 28.8 25.6 29.16 25.6 29.6V30ZM25.6 26.8C25.6 27.24 25.24 27.6 24.8 27.6H23.2C22.76 27.6 22.4 27.24 22.4 26.8V26.4C22.4 25.96 22.76 25.6 23.2 25.6H24.8C25.24 25.6 25.6 25.96 25.6 26.4V26.8ZM25.6 23.6C25.6 24.04 25.24 24.4 24.8 24.4H23.2C22.76 24.4 22.4 24.04 22.4 23.6V23.2C22.4 22.76 22.76 22.4 23.2 22.4H24.8C25.24 22.4 25.6 22.76 25.6 23.2V23.6ZM30.4 30C30.4 30.44 30.04 30.8 29.6 30.8H28C27.56 30.8 27.2 30.44 27.2 30V29.6C27.2 29.16 27.56 28.8 28 28.8H29.6C30.04 28.8 30.4 29.16 30.4 29.6V30ZM30.4 26.8C30.4 27.24 30.04 27.6 29.6 27.6H28C27.56 27.6 27.2 27.24 27.2 26.8V26.4C27.2 25.96 27.56 25.6 28 25.6H29.6C30.04 25.6 30.4 25.96 30.4 26.4V26.8ZM30.4 23.6C30.4 24.04 30.04 24.4 29.6 24.4H28C27.56 24.4 27.2 24.04 27.2 23.6V23.2C27.2 22.76 27.56 22.4 28 22.4H29.6C30.04 22.4 30.4 22.76 30.4 23.2V23.6ZM30.4 20C30.4 20.44 30.04 20.8 29.6 20.8H18.4C17.96 20.8 17.6 20.44 17.6 20V16.8C17.6 16.36 17.96 16 18.4 16H29.6C30.04 16 30.4 16.36 30.4 16.8V20Z" fill="#969696"/>
</svg>
