<svg width="48" height="48" viewBox="0 0 48 48" fill="none" xmlns="http://www.w3.org/2000/svg">
<rect width="47.5" height="47.5" rx="14.64" fill="white" fill-opacity="0.07"/>
<path d="M29.3125 29.3333H27.6458C27.4097 29.3333 27.2119 29.2533 27.0525 29.0933C26.8931 28.9333 26.8131 28.7356 26.8125 28.5C26.8119 28.2644 26.8919 28.0667 27.0525 27.9067C27.2131 27.7467 27.4108 27.6667 27.6458 27.6667H29.3125V26C29.3125 25.7639 29.3925 25.5661 29.5525 25.4067C29.7125 25.2472 29.9103 25.1672 30.1458 25.1667C30.3814 25.1661 30.5794 25.2461 30.74 25.4067C30.9006 25.5672 30.9803 25.765 30.9792 26V27.6667H32.6458C32.8819 27.6667 33.08 27.7467 33.24 27.9067C33.4 28.0667 33.4797 28.2644 33.4792 28.5C33.4786 28.7356 33.3986 28.9336 33.2392 29.0942C33.0797 29.2547 32.8819 29.3344 32.6458 29.3333H30.9792V31C30.9792 31.2361 30.8992 31.4342 30.7392 31.5942C30.5792 31.7542 30.3814 31.8339 30.1458 31.8333C29.9103 31.8328 29.7125 31.7528 29.5525 31.5933C29.3925 31.4339 29.3125 31.2361 29.3125 31V29.3333ZM16.8125 29.3333C16.5764 29.3333 16.3786 29.2533 16.2192 29.0933C16.0597 28.9333 15.9797 28.7356 15.9792 28.5V24.3333H15.8333C15.5694 24.3333 15.3542 24.2325 15.1875 24.0308C15.0208 23.8292 14.9653 23.5967 15.0208 23.3333L15.8542 19.1667C15.8958 18.9722 15.9931 18.8125 16.1458 18.6875C16.2986 18.5625 16.4722 18.5 16.6667 18.5H27.7917C27.9861 18.5 28.1597 18.5625 28.3125 18.6875C28.4653 18.8125 28.5625 18.9722 28.6042 19.1667L29.4375 23.3333C29.4931 23.5972 29.4375 23.83 29.2708 24.0317C29.1042 24.2333 28.8889 24.3339 28.625 24.3333H28.4792V26C28.4792 26.2361 28.3992 26.4342 28.2392 26.5942C28.0792 26.7542 27.8814 26.8339 27.6458 26.8333C27.4103 26.8328 27.2125 26.7528 27.0525 26.5933C26.8925 26.4339 26.8125 26.2361 26.8125 26V24.3333H23.4792V28.5C23.4792 28.7361 23.3992 28.9342 23.2392 29.0942C23.0792 29.2542 22.8814 29.3339 22.6458 29.3333H16.8125ZM17.6458 27.6667H21.8125V24.3333H17.6458V27.6667ZM16.8125 17.6667C16.5764 17.6667 16.3786 17.5867 16.2192 17.4267C16.0597 17.2667 15.9797 17.0689 15.9792 16.8333C15.9786 16.5978 16.0586 16.4 16.2192 16.24C16.3797 16.08 16.5775 16 16.8125 16H27.6458C27.8819 16 28.08 16.08 28.24 16.24C28.4 16.4 28.4797 16.5978 28.4792 16.8333C28.4786 17.0689 28.3986 17.2669 28.2392 17.4275C28.0797 17.5881 27.8819 17.6678 27.6458 17.6667H16.8125Z" fill="#969696"/>
</svg>
