<svg width="48" height="48" viewBox="0 0 48 48" fill="none" xmlns="http://www.w3.org/2000/svg">
<rect width="47.5" height="47.5" rx="14.64" fill="white" fill-opacity="0.07"/>
<path fill-rule="evenodd" clip-rule="evenodd" d="M24.152 17C22.2699 17 20.5553 17.6217 19.5407 18.1296C19.449 18.1754 19.3636 18.2204 19.284 18.2637C19.1265 18.3496 18.9924 18.4296 18.8857 18.5L20.0399 20.1992L20.5832 20.4154C22.7065 21.4867 25.554 21.4867 27.6778 20.4154L28.2945 20.0954L29.3857 18.5C29.1597 18.3525 28.9246 18.2193 28.682 18.1012C27.6724 17.5987 25.9986 17 24.1524 17M21.4682 18.9233C21.0595 18.8469 20.6558 18.7456 20.2595 18.62C21.2099 18.1979 22.6261 17.75 24.1524 17.75C25.2095 17.75 26.209 17.965 27.0357 18.2375C26.067 18.3738 25.0332 18.605 24.0482 18.8896C23.2732 19.1137 22.3674 19.0896 21.4682 18.9233ZM28.1182 21.0333L28.0157 21.085C25.6799 22.2633 22.5815 22.2633 20.2457 21.085L20.1486 21.0358C16.639 24.8862 13.9599 31.9988 24.152 31.9988C34.344 31.9988 31.5999 24.7542 28.1182 21.0333ZM23.719 24.5C23.498 24.5 23.2861 24.5878 23.1298 24.7441C22.9735 24.9004 22.8857 25.1123 22.8857 25.3333C22.8857 25.5543 22.9735 25.7663 23.1298 25.9226C23.2861 26.0789 23.498 26.1667 23.719 26.1667V24.5ZM24.5524 23.6667V23.25H23.719V23.6667C23.277 23.6667 22.8531 23.8423 22.5405 24.1548C22.228 24.4674 22.0524 24.8913 22.0524 25.3333C22.0524 25.7754 22.228 26.1993 22.5405 26.5118C22.8531 26.8244 23.277 27 23.719 27V28.6667C23.3565 28.6667 23.0478 28.4354 22.9328 28.1112C22.9157 28.0582 22.8882 28.0091 22.8519 27.9669C22.8155 27.9247 22.771 27.8902 22.7211 27.8655C22.6712 27.8408 22.6168 27.8263 22.5612 27.8229C22.5056 27.8196 22.4499 27.8274 22.3973 27.846C22.3448 27.8645 22.2965 27.8935 22.2554 27.931C22.2142 27.9685 22.181 28.014 22.1577 28.0646C22.1344 28.1152 22.1215 28.1699 22.1197 28.2256C22.1179 28.2813 22.1273 28.3368 22.1474 28.3887C22.2623 28.7137 22.4752 28.9951 22.7566 29.1941C23.0381 29.3931 23.3743 29.5 23.719 29.5V29.9167H24.5524V29.5C24.9944 29.5 25.4183 29.3244 25.7309 29.0118C26.0435 28.6993 26.219 28.2754 26.219 27.8333C26.219 27.3913 26.0435 26.9674 25.7309 26.6548C25.4183 26.3423 24.9944 26.1667 24.5524 26.1667V24.5C24.9149 24.5 25.2236 24.7312 25.3386 25.0554C25.3557 25.1085 25.3832 25.1575 25.4196 25.1997C25.4559 25.242 25.5004 25.2764 25.5503 25.3012C25.6002 25.3259 25.6546 25.3404 25.7102 25.3437C25.7658 25.3471 25.8216 25.3392 25.8741 25.3207C25.9266 25.3021 25.9749 25.2732 26.0161 25.2357C26.0572 25.1981 26.0904 25.1527 26.1137 25.1021C26.137 25.0515 26.15 24.9967 26.1517 24.9411C26.1535 24.8854 26.1441 24.8299 26.124 24.7779C26.0091 24.4529 25.7963 24.1716 25.5148 23.9725C25.2333 23.7735 24.8971 23.6667 24.5524 23.6667ZM24.5524 27V28.6667C24.7734 28.6667 24.9854 28.5789 25.1416 28.4226C25.2979 28.2663 25.3857 28.0543 25.3857 27.8333C25.3857 27.6123 25.2979 27.4004 25.1416 27.2441C24.9854 27.0878 24.7734 27 24.5524 27Z" fill="#969696"/>
</svg>
