<svg width="48" height="48" viewBox="0 0 48 48" fill="none" xmlns="http://www.w3.org/2000/svg">
<rect width="47.5" height="47.5" rx="14.64" fill="white" fill-opacity="0.07"/>
<path d="M30.5244 26.3928L27.3924 24.8988L26.068 24.267C26.6464 23.9026 27.1162 23.3402 27.4236 22.6628C27.68 22.0981 27.8126 21.485 27.8126 20.8648C27.8126 20.4994 27.7546 20.1524 27.6738 19.8176C27.2798 18.1952 26.0128 17 24.4918 17C22.9996 17 21.7518 18.1526 21.3334 19.7288C21.2368 20.0904 21.1704 20.4664 21.1704 20.8648C21.1704 21.5566 21.332 22.2016 21.6066 22.7626C21.924 23.4134 22.3946 23.95 22.9674 24.295L21.699 24.8856L18.4654 26.3916C18.1846 26.5232 18 26.84 18 27.1938V30.7468C18 31.223 18.3318 31.609 18.7414 31.609H23.544V28.8886C23.5447 28.8605 23.5529 28.8332 23.5678 28.8094L23.5658 28.8082L24.3524 27.4458L24.3544 27.447C24.3824 27.399 24.4322 27.365 24.4918 27.365C24.5514 27.365 24.6012 27.3988 24.6292 27.447L24.63 27.4464L24.6372 27.459C24.6382 27.461 24.6396 27.4626 24.6404 27.4646L25.4166 28.8088L25.4156 28.8094C25.4305 28.8332 25.4387 28.8607 25.4394 28.8888V31.6092H30.242C30.6516 31.6092 30.9836 31.2232 30.9836 30.747V27.1938C30.9842 26.8412 30.8026 26.5274 30.5244 26.3928ZM25.4162 25.4818L25.4182 25.483L24.6314 26.8454L24.6294 26.8442C24.6157 26.8687 24.5958 26.8892 24.5717 26.9036C24.5476 26.918 24.5201 26.9257 24.492 26.926C24.4639 26.9257 24.4364 26.918 24.4123 26.9036C24.3882 26.8892 24.3683 26.8687 24.3546 26.8442L24.3536 26.8448L24.3456 26.831C24.345 26.8296 24.3438 26.8284 24.3432 26.827L23.567 25.4824L23.5678 25.4818C23.5529 25.458 23.5447 25.4305 23.544 25.4024C23.544 25.3134 23.6162 25.2412 23.7052 25.2412H25.2784C25.3674 25.2412 25.4396 25.3134 25.4396 25.4024C25.4393 25.4305 25.4312 25.458 25.4162 25.4818Z" fill="#969696"/>
</svg>
