<svg width="48" height="48" viewBox="0 0 48 48" fill="none" xmlns="http://www.w3.org/2000/svg">
<rect width="47.5" height="47.5" rx="14.64" fill="white" fill-opacity="0.07"/>
<path d="M27.4592 24.9958C28.1092 24.9958 28.6817 25.3267 29.0175 25.8292H23.9133C23.3608 25.8292 22.8309 26.0487 22.4402 26.4394C22.0495 26.8301 21.83 27.36 21.83 27.9125V31.2458C21.83 31.3808 21.8425 31.5119 21.8675 31.6392C19.4183 31.4842 17.5875 30.5975 16.4258 28.9667C16.149 28.5784 16.0001 28.1135 16 27.6367V26.87C16.0002 26.373 16.1977 25.8964 16.5492 25.545C16.9006 25.1936 17.3772 24.9961 17.8742 24.9958H27.4592ZM22.6633 15C23.2105 15 23.7523 15.1078 24.2578 15.3172C24.7634 15.5266 25.2227 15.8335 25.6096 16.2204C25.9965 16.6073 26.3034 17.0666 26.5128 17.5722C26.7222 18.0777 26.83 18.6195 26.83 19.1667C26.83 19.7138 26.7222 20.2557 26.5128 20.7612C26.3034 21.2667 25.9965 21.726 25.6096 22.1129C25.2227 22.4999 24.7634 22.8068 24.2578 23.0162C23.7523 23.2256 23.2105 23.3333 22.6633 23.3333C21.5583 23.3333 20.4985 22.8943 19.7171 22.1129C18.9357 21.3315 18.4967 20.2717 18.4967 19.1667C18.4967 18.0616 18.9357 17.0018 19.7171 16.2204C20.4985 15.439 21.5583 15 22.6633 15ZM22.6633 27.9125C22.6633 27.581 22.795 27.263 23.0294 27.0286C23.2639 26.7942 23.5818 26.6625 23.9133 26.6625H30.58C30.9115 26.6625 31.2295 26.7942 31.4639 27.0286C31.6983 27.263 31.83 27.581 31.83 27.9125V31.2458C31.83 31.5774 31.6983 31.8953 31.4639 32.1297C31.2295 32.3641 30.9115 32.4958 30.58 32.4958H23.9133C23.5818 32.4958 23.2639 32.3641 23.0294 32.1297C22.795 31.8953 22.6633 31.5774 22.6633 31.2458V27.9125ZM30.9967 28.3292C30.7757 28.3292 30.5637 28.2414 30.4074 28.0851C30.2511 27.9288 30.1633 27.7168 30.1633 27.4958H29.33C29.33 27.9379 29.5056 28.3618 29.8182 28.6743C30.1307 28.9869 30.5546 29.1625 30.9967 29.1625V28.3292ZM30.9967 29.9958C30.5546 29.9958 30.1307 30.1714 29.8182 30.484C29.5056 30.7965 29.33 31.2205 29.33 31.6625H30.1633C30.1633 31.4415 30.2511 31.2295 30.4074 31.0732C30.5637 30.917 30.7757 30.8292 30.9967 30.8292V29.9958ZM24.33 27.4958C24.33 27.7168 24.2422 27.9288 24.0859 28.0851C23.9296 28.2414 23.7177 28.3292 23.4967 28.3292V29.1625C23.9387 29.1625 24.3626 28.9869 24.6752 28.6743C24.9877 28.3618 25.1633 27.9379 25.1633 27.4958H24.33ZM25.1633 31.6625C25.1633 31.2205 24.9877 30.7965 24.6752 30.484C24.3626 30.1714 23.9387 29.9958 23.4967 29.9958V30.8292C23.7177 30.8292 23.9296 30.917 24.0859 31.0732C24.2422 31.2295 24.33 31.4415 24.33 31.6625H25.1633ZM28.705 29.5792C28.705 29.1924 28.5514 28.8215 28.2779 28.548C28.0044 28.2745 27.6334 28.1208 27.2467 28.1208C26.8599 28.1208 26.489 28.2745 26.2155 28.548C25.942 28.8215 25.7883 29.1924 25.7883 29.5792C25.7883 29.9659 25.942 30.3369 26.2155 30.6104C26.489 30.8839 26.8599 31.0375 27.2467 31.0375C27.6334 31.0375 28.0044 30.8839 28.2779 30.6104C28.5514 30.3369 28.705 29.9659 28.705 29.5792Z" fill="#969696"/>
</svg>
