<svg width="36" height="36" viewBox="0 0 36 36" fill="none" xmlns="http://www.w3.org/2000/svg">
<path d="M28.1757 7.97983C26.8615 6.65241 25.2963 5.59994 23.5711 4.88379C21.846 4.16765 19.9955 3.80217 18.1276 3.80868C10.3013 3.80868 3.92278 10.1872 3.92278 18.0135C3.92278 20.522 4.58213 22.9587 5.81485 25.1088L3.80811 32.4764L11.3334 30.4983C13.4118 31.6307 15.7482 32.2327 18.1276 32.2327C25.9539 32.2327 32.3325 25.8542 32.3325 18.0279C32.3325 14.2294 30.8561 10.6603 28.1757 7.97983ZM18.1276 29.8246C16.0062 29.8246 13.9278 29.2513 12.1074 28.1763L11.6774 27.9182L7.20523 29.0936L8.39494 24.7361L8.10827 24.2918C6.92966 22.4097 6.30383 20.2342 6.3022 18.0135C6.3022 11.506 11.6057 6.20243 18.1133 6.20243C21.2668 6.20243 24.2339 7.43515 26.4556 9.67123C27.5557 10.7663 28.4275 12.0688 29.0205 13.5033C29.6135 14.9378 29.9159 16.4757 29.9101 18.0279C29.9387 24.5354 24.6352 29.8246 18.1276 29.8246ZM24.6065 20.995C24.2482 20.823 22.4995 19.9629 22.1841 19.8339C21.8544 19.7193 21.6251 19.6619 21.3814 20.0059C21.1377 20.3643 20.4641 21.167 20.2634 21.3963C20.0627 21.64 19.8477 21.6687 19.4894 21.4823C19.131 21.3103 17.9843 20.9233 16.6369 19.7193C15.5762 18.7732 14.8738 17.6122 14.6588 17.2538C14.4582 16.8955 14.6302 16.7092 14.8165 16.5228C14.9742 16.3651 15.1749 16.1071 15.3469 15.9065C15.5189 15.7058 15.5905 15.5481 15.7052 15.3188C15.8199 15.0751 15.7625 14.8744 15.6765 14.7024C15.5905 14.5304 14.8738 12.7817 14.5872 12.065C14.3005 11.377 13.9995 11.463 13.7845 11.4486H13.0964C12.8528 11.4486 12.4801 11.5346 12.1504 11.893C11.8351 12.2513 10.9177 13.1114 10.9177 14.8601C10.9177 16.6088 12.1934 18.3002 12.3654 18.5296C12.5374 18.7732 14.8738 22.3567 18.4286 23.8904C19.2743 24.2631 19.9337 24.4781 20.4497 24.6358C21.2954 24.9081 22.0695 24.8651 22.6858 24.7791C23.3738 24.6788 24.7929 23.9191 25.0796 23.0877C25.3806 22.2564 25.3806 21.554 25.2802 21.3963C25.1799 21.2387 24.9649 21.167 24.6065 20.995Z" fill="white"/>
</svg>
