<svg width="134" height="24" viewBox="0 0 134 24" fill="none" xmlns="http://www.w3.org/2000/svg">
<path fill-rule="evenodd" clip-rule="evenodd" d="M12.5572 1.75C14.7479 1.74999 16.4686 1.74998 17.812 1.93059C19.1886 2.11568 20.2809 2.50271 21.1391 3.36091C21.9973 4.21911 22.3843 5.31137 22.5694 6.68802C22.75 8.03144 22.75 9.7521 22.75 11.9428V12.0572C22.75 14.2479 22.75 15.9686 22.5694 17.312C22.3843 18.6886 21.9973 19.7809 21.1391 20.6391C20.2809 21.4973 19.1886 21.8843 17.812 22.0694C16.4686 22.25 14.7479 22.25 12.5572 22.25H12.4428C10.2521 22.25 8.53144 22.25 7.18802 22.0694C5.81137 21.8843 4.71911 21.4973 3.86091 20.6391C3.00272 19.7809 2.61568 18.6886 2.43059 17.312C2.24998 15.9686 2.24999 14.2479 2.25 12.0572V11.9428C2.24999 9.75212 2.24998 8.03144 2.43059 6.68802C2.61568 5.31137 3.00272 4.21911 3.86091 3.36091C4.71911 2.50271 5.81137 2.11568 7.18802 1.93059C8.53143 1.74998 10.2521 1.74999 12.4428 1.75H12.5572ZM17 12C17 14.4853 14.9853 16.5 12.5 16.5C10.0147 16.5 8 14.4853 8 12C8 9.51472 10.0147 7.5 12.5 7.5C14.9853 7.5 17 9.51472 17 12ZM18.0123 7.5C18.5621 7.5 19.0078 7.05229 19.0078 6.5C19.0078 5.94772 18.5621 5.5 18.0123 5.5H18.0033C17.4535 5.5 17.0078 5.94772 17.0078 6.5C17.0078 7.05228 17.4535 7.5 18.0033 7.5H18.0123Z" fill="#CAD1E9"/>
<path d="M37.85 18V5.49H39.902V18H37.85ZM49.8441 18V12.456C49.8441 10.638 48.8541 9.702 47.3601 9.702C45.8481 9.702 44.8581 10.638 44.8581 12.456V18H42.8061V8.082H44.8581V9.216C45.5241 8.406 46.6221 7.92 47.8101 7.92C50.1321 7.92 51.8781 9.378 51.8781 12.15V18H49.8441ZM62.1035 15.228C62.1035 16.902 60.6455 18.162 58.3055 18.162C55.9295 18.162 54.2555 16.758 54.1655 14.958H56.2895C56.3615 15.768 57.1355 16.434 58.2695 16.434C59.4575 16.434 60.0875 15.93 60.0875 15.246C60.0875 13.302 54.3275 14.418 54.3275 10.782C54.3275 9.198 55.8035 7.92 58.1435 7.92C60.3935 7.92 61.8695 9.126 61.9775 11.106H59.9255C59.8535 10.242 59.1875 9.648 58.0715 9.648C56.9735 9.648 56.3975 10.098 56.3975 10.764C56.3975 12.762 61.9955 11.646 62.1035 15.228ZM64.8548 15.246V9.756H63.6848V8.082H64.8548V5.616H66.9248V8.082H69.3368V9.756H66.9248V15.246C66.9248 15.984 67.2128 16.29 68.0768 16.29H69.3368V18H67.7168C65.9528 18 64.8548 17.262 64.8548 15.246ZM70.754 12.996C70.754 9.936 72.824 7.92 75.434 7.92C77.108 7.92 78.26 8.712 78.872 9.522V8.082H80.942V18H78.872V16.524C78.242 17.37 77.054 18.162 75.398 18.162C72.824 18.162 70.754 16.056 70.754 12.996ZM78.872 13.032C78.872 10.908 77.414 9.702 75.866 9.702C74.336 9.702 72.86 10.854 72.86 12.996C72.86 15.138 74.336 16.38 75.866 16.38C77.414 16.38 78.872 15.174 78.872 13.032ZM83.1633 12.996C83.1633 9.936 85.2333 7.92 87.8433 7.92C89.4633 7.92 90.6693 8.676 91.2813 9.522V8.082H93.3513V18.162C93.3513 20.862 91.6053 22.896 88.5093 22.896C85.8633 22.896 83.9013 21.582 83.6493 19.386H85.6833C85.9893 20.412 87.0873 21.114 88.5093 21.114C90.0933 21.114 91.2813 20.142 91.2813 18.162V16.506C90.6513 17.352 89.4633 18.162 87.8433 18.162C85.2333 18.162 83.1633 16.056 83.1633 12.996ZM91.2813 13.032C91.2813 10.908 89.8233 9.702 88.2753 9.702C86.7453 9.702 85.2693 10.854 85.2693 12.996C85.2693 15.138 86.7453 16.38 88.2753 16.38C89.8233 16.38 91.2813 15.174 91.2813 13.032ZM98.3085 12.78V18H96.2565V8.082H98.3085V9.522C98.8845 8.532 99.8745 7.92 101.278 7.92V10.044H100.756C99.2445 10.044 98.3085 10.674 98.3085 12.78ZM102.691 12.996C102.691 9.936 104.761 7.92 107.371 7.92C109.045 7.92 110.197 8.712 110.809 9.522V8.082H112.879V18H110.809V16.524C110.179 17.37 108.991 18.162 107.335 18.162C104.761 18.162 102.691 16.056 102.691 12.996ZM110.809 13.032C110.809 10.908 109.351 9.702 107.803 9.702C106.273 9.702 104.797 10.854 104.797 12.996C104.797 15.138 106.273 16.38 107.803 16.38C109.351 16.38 110.809 15.174 110.809 13.032ZM129.842 18V12.456C129.842 10.638 128.852 9.702 127.358 9.702C125.846 9.702 124.856 10.638 124.856 12.456V18H122.822V12.456C122.822 10.638 121.832 9.702 120.338 9.702C118.826 9.702 117.836 10.638 117.836 12.456V18H115.784V8.082H117.836V9.216C118.502 8.406 119.582 7.92 120.77 7.92C122.336 7.92 123.65 8.586 124.334 9.882C124.946 8.676 126.35 7.92 127.79 7.92C130.112 7.92 131.876 9.378 131.876 12.15V18H129.842Z" fill="#CAD1E9"/>
</svg>
