<svg width="48" height="48" viewBox="0 0 48 48" fill="none" xmlns="http://www.w3.org/2000/svg">
<rect width="47.5" height="47.5" rx="14.64" fill="white" fill-opacity="0.07"/>
<path d="M17.6667 31.8333C17.2083 31.8333 16.8161 31.6703 16.49 31.3442C16.1639 31.0181 16.0006 30.6256 16 30.1667V26.8333H21.8333V28.5H26.8333V26.8333H32.6667V30.1667C32.6667 30.625 32.5036 31.0175 32.1775 31.3442C31.8514 31.6708 31.4589 31.8339 31 31.8333H17.6667ZM23.5 26.8333V25.1667H25.1667V26.8333H23.5ZM16 25.1667V21C16 20.5417 16.1633 20.1494 16.49 19.8233C16.8167 19.4972 17.2089 19.3339 17.6667 19.3333H21V17.6667C21 17.2083 21.1633 16.8161 21.49 16.49C21.8167 16.1639 22.2089 16.0006 22.6667 16H26C26.4583 16 26.8508 16.1633 27.1775 16.49C27.5042 16.8167 27.6672 17.2089 27.6667 17.6667V19.3333H31C31.4583 19.3333 31.8508 19.4967 32.1775 19.8233C32.5042 20.15 32.6672 20.5422 32.6667 21V25.1667H26.8333V23.5H21.8333V25.1667H16ZM22.6667 19.3333H26V17.6667H22.6667V19.3333Z" fill="#969696"/>
</svg>
