<svg width="48" height="48" viewBox="0 0 48 48" fill="none" xmlns="http://www.w3.org/2000/svg">
<rect width="47.5" height="47.5" rx="14.64" fill="white" fill-opacity="0.07"/>
<path fill-rule="evenodd" clip-rule="evenodd" d="M21.6929 21.5631L23.6986 19.7488C24.1599 19.3323 24.7062 19.0212 25.2997 18.8369C25.8932 18.6526 26.5197 18.5997 27.1357 18.6816L29.79 19.0331L33.4729 17.0431C33.5273 17.0136 33.5884 16.9988 33.6503 17.0001C33.7121 17.0014 33.7726 17.0187 33.8258 17.0504C33.8789 17.0821 33.9229 17.127 33.9534 17.1808C33.984 17.2346 34 17.2955 34 17.3573V24.1259C34 24.353 33.9458 24.5769 33.8419 24.7789C33.7381 24.9808 33.5876 25.1552 33.4029 25.2873L30.9229 27.0602L28.2371 24.8088C28.761 24.6204 29.2336 24.3122 29.6171 23.9088C29.6987 23.8243 29.7627 23.7247 29.8057 23.6155C29.8487 23.5063 29.8698 23.3897 29.8678 23.2724C29.8657 23.1551 29.8406 23.0393 29.7938 22.9317C29.747 22.8241 29.6794 22.7267 29.595 22.6452C29.5106 22.5637 29.4109 22.4996 29.3017 22.4566C29.1926 22.4136 29.076 22.3925 28.9586 22.3946C28.8413 22.3966 28.7255 22.4218 28.6179 22.4686C28.5103 22.5154 28.4129 22.5829 28.3314 22.6673C28.0671 22.9431 27.76 23.1202 27.4 23.1902C27.0871 23.2516 26.6886 23.2416 26.1871 23.0873L25.55 22.5516L23.7714 23.9931C23.447 24.25 23.0356 24.3712 22.6236 24.3313C22.2117 24.2913 21.8313 24.0933 21.5622 23.7788C21.2932 23.4643 21.1565 23.0577 21.1809 22.6446C21.2052 22.2314 21.3887 21.8438 21.6929 21.5631ZM20.4957 20.2373L21.9357 18.9359C21.3166 18.767 20.668 18.7363 20.0357 18.8459L17.4143 19.3002L14.5371 17.7516C14.4816 17.7217 14.4192 17.7067 14.3561 17.7081C14.293 17.7095 14.2314 17.7273 14.1772 17.7597C14.1231 17.7921 14.0783 17.838 14.0472 17.893C14.0161 17.9479 13.9999 18.0099 14 18.0731V24.1245C14 24.6073 14.2386 25.0588 14.6371 25.3302L22.43 30.6431C22.9226 30.9787 23.5062 31.1555 24.1023 31.1497C24.6984 31.1438 25.2784 30.9555 25.7643 30.6102L29.3443 28.0688L25.53 24.8688L24.8943 25.3802C24.2084 25.9314 23.3349 26.194 22.4587 26.1122C21.5826 26.0305 20.7727 25.6108 20.2007 24.9422C19.6286 24.2736 19.3394 23.4085 19.3942 22.5303C19.449 21.652 19.845 20.8297 20.4957 20.2373Z" fill="#969696"/>
</svg>
