<svg width="40" height="40" viewBox="0 0 40 40" fill="none" xmlns="http://www.w3.org/2000/svg">
<path d="M18.8933 3.75492C19.1983 3.48407 19.592 3.33447 20 3.33447C20.4079 3.33447 20.8016 3.48407 21.1066 3.75492L36.1066 17.0883C36.4202 17.3861 36.6057 17.7942 36.6239 18.2263C36.6422 18.6584 36.4917 19.0806 36.2044 19.4039C35.9171 19.7271 35.5154 19.926 35.0841 19.9586C34.6529 19.9911 34.2259 19.8547 33.8933 19.5783L33.3333 19.0833V31.6666C33.3333 32.5506 32.9821 33.3985 32.357 34.0236C31.7319 34.6487 30.884 34.9999 30 34.9999H9.99996C9.1159 34.9999 8.26806 34.6487 7.64294 34.0236C7.01782 33.3985 6.66663 32.5506 6.66663 31.6666V19.0833L6.10663 19.5783C5.77406 19.8547 5.34704 19.9911 4.91579 19.9586C4.48454 19.926 4.08282 19.7271 3.7955 19.4039C3.50818 19.0806 3.35775 18.6584 3.376 18.2263C3.39425 17.7942 3.57974 17.3861 3.89329 17.0883L18.8933 3.75492ZM9.99996 16.1166V31.6666H15V23.3333C15 22.8912 15.1756 22.4673 15.4881 22.1547C15.8007 21.8422 16.2246 21.6666 16.6666 21.6666H23.3333C23.7753 21.6666 24.1992 21.8422 24.5118 22.1547C24.8244 22.4673 25 22.8912 25 23.3333V31.6666H30V16.1183L20 7.22992L9.99996 16.1166ZM21.6666 31.6666V24.9999H18.3333V31.6666H21.6666Z" fill="white"/>
</svg>
