<svg width="48" height="48" viewBox="0 0 48 48" fill="none" xmlns="http://www.w3.org/2000/svg">
<rect width="47.5" height="47.5" rx="14.64" fill="white" fill-opacity="0.07"/>
<path d="M29.3333 25.3333V27.8333ZM29.3333 30.3333V27.8333ZM29.3333 27.8333H26.8333ZM29.3333 27.8333H31.8333Z" fill="#969696"/>
<path d="M29.3333 25.3333V27.8333M29.3333 27.8333V30.3333M29.3333 27.8333H26.8333M29.3333 27.8333H31.8333" stroke="#969696" stroke-width="1.66667" stroke-linecap="round" stroke-linejoin="round"/>
<path fill-rule="evenodd" clip-rule="evenodd" d="M18.5 17C17.837 17 17.2011 17.2634 16.7322 17.7322C16.2634 18.2011 16 18.837 16 19.5V26.1667C16 26.8297 16.2634 27.4656 16.7322 27.9344C17.2011 28.4033 17.837 28.6667 18.5 28.6667H24.4025C24.3564 28.3913 24.3332 28.1125 24.3333 27.8333C24.3333 26.8767 24.6017 25.9833 25.0675 25.2242C24.6935 25.3389 24.2979 25.3642 23.9123 25.2983C23.5268 25.2323 23.1621 25.0768 22.8475 24.8443C22.533 24.6118 22.2774 24.3087 22.1013 23.9594C21.9251 23.6102 21.8333 23.2245 21.8333 22.8333C21.8338 22.474 21.9118 22.1189 22.062 21.7924C22.2121 21.4659 22.4309 21.1756 22.7034 20.9412C22.9759 20.7069 23.2957 20.5341 23.641 20.4346C23.9863 20.3351 24.349 20.3112 24.7044 20.3645C25.0599 20.4179 25.3996 20.5472 25.7005 20.7437C26.0013 20.9403 26.2563 21.1994 26.448 21.5034C26.6397 21.8073 26.7636 22.1491 26.8113 22.5053C26.8589 22.8615 26.8292 23.2238 26.7242 23.5675C27.5092 23.0861 28.4124 22.8319 29.3333 22.8333C30.6142 22.8333 31.7825 23.315 32.6667 24.1067V19.5C32.6667 18.837 32.4033 18.2011 31.9344 17.7322C31.4656 17.2634 30.8297 17 30.1667 17H18.5ZM24.3333 22C24.1123 22 23.9004 22.0878 23.7441 22.2441C23.5878 22.4004 23.5 22.6123 23.5 22.8333C23.5 23.0543 23.5878 23.2663 23.7441 23.4226C23.9004 23.5789 24.1123 23.6667 24.3333 23.6667C24.5543 23.6667 24.7663 23.5789 24.9226 23.4226C25.0789 23.2663 25.1667 23.0543 25.1667 22.8333C25.1667 22.6123 25.0789 22.4004 24.9226 22.2441C24.7663 22.0878 24.5543 22 24.3333 22Z" fill="#969696"/>
</svg>
