<svg width="48" height="48" viewBox="0 0 48 48" fill="none" xmlns="http://www.w3.org/2000/svg">
<rect width="47.5" height="47.5" rx="14.64" fill="white" fill-opacity="0.07"/>
<path d="M23.6167 16C22.7408 16.0116 21.9049 16.3681 21.2902 16.9922C20.6755 17.6162 20.3317 18.4574 20.3333 19.3333C20.2833 20.7 20.175 22.225 19.525 23.1583C21.7583 24.5167 23.6667 24.3333 23.6667 24.3333C23.6667 24.3333 25.575 24.5167 27.8083 23.1583C27.1 22.0167 26.95 20.6167 27 19.3333C27 17.4917 25.5083 16 23.6667 16H23.6167ZM21.05 24.6C18.6667 25.1083 17 26.2917 17 27.6667V31H23.6667L21.1667 27.6667H19.0833M23.6667 31L25.15 25.0083C25.15 25.0083 24.5 25.1667 23.6667 25.1667C22.8333 25.1667 22.1833 25.0083 22.1833 25.0083M23.6667 31H30.3333V27.6667C30.3333 26.2917 28.6667 25.1083 26.2833 24.6L28.25 27.6667H26.1667L23.6667 31Z" fill="#969696"/>
</svg>
