<svg width="48" height="48" viewBox="0 0 48 48" fill="none" xmlns="http://www.w3.org/2000/svg">
<rect width="47.5" height="47.5" rx="14.64" fill="white" fill-opacity="0.07"/>
<path d="M17.5 28.5C17.0417 28.5 16.6494 28.3369 16.3233 28.0108C15.9972 27.6847 15.8339 27.2922 15.8333 26.8333V17.6667C15.8333 17.2083 15.9967 16.8161 16.3233 16.49C16.65 16.1639 17.0422 16.0006 17.5 16H30.8333C31.2917 16 31.6842 16.1633 32.0108 16.49C32.3375 16.8167 32.5006 17.2089 32.5 17.6667V26.8333C32.5 27.2917 32.3369 27.6842 32.0108 28.0108C31.6847 28.3375 31.2922 28.5006 30.8333 28.5H17.5ZM15 31V29.3333H33.3333V31H15Z" fill="#969696"/>
</svg>
