<svg width="48" height="48" viewBox="0 0 48 48" fill="none" xmlns="http://www.w3.org/2000/svg">
<rect width="47.5" height="47.5" rx="14.64" fill="white" fill-opacity="0.07"/>
<path fill-rule="evenodd" clip-rule="evenodd" d="M15.6286 14.6286C16.03 14.2266 16.5747 14.0005 17.1429 14H25.7143C25.8082 13.9998 25.9011 14.0182 25.9879 14.054C26.0747 14.0897 26.1535 14.1423 26.22 14.2086L31.9343 19.9229C32.0006 19.9893 32.0531 20.0682 32.0889 20.155C32.1247 20.2417 32.143 20.3347 32.1429 20.4286V31.8571C32.1429 32.4255 31.9171 32.9705 31.5152 33.3724C31.1134 33.7742 30.5683 34 30 34H17.1429C16.5745 34 16.0295 33.7742 15.6276 33.3724C15.2258 32.9705 15 32.4255 15 31.8571V16.1429C15 15.5743 15.2257 15.0286 15.6286 14.6286ZM20.65 19.6429C20.8421 19.6429 21.0323 19.605 21.2098 19.5315C21.3873 19.458 21.5486 19.3502 21.6844 19.2144C21.8202 19.0786 21.928 18.9173 22.0015 18.7398C22.075 18.5623 22.1129 18.3721 22.1129 18.18C22.1129 17.9879 22.075 17.7977 22.0015 17.6202C21.928 17.4427 21.8202 17.2814 21.6844 17.1456C21.5486 17.0098 21.3873 16.902 21.2098 16.8285C21.0323 16.755 20.8421 16.7171 20.65 16.7171C20.262 16.7171 19.8899 16.8713 19.6156 17.1456C19.3413 17.4199 19.1871 17.792 19.1871 18.18C19.1871 18.568 19.3413 18.9401 19.6156 19.2144C19.8899 19.4887 20.262 19.6429 20.65 19.6429ZM17.68 26.1429C17.68 25.65 18.0786 25.25 18.5714 25.25H28.5714C28.7995 25.2625 29.0142 25.3619 29.1713 25.5277C29.3285 25.6934 29.4163 25.9131 29.4166 26.1415C29.417 26.3699 29.3299 26.5899 29.1733 26.7561C29.0167 26.9224 28.8023 27.0224 28.5743 27.0357H18.5743C18.3374 27.0357 18.1101 26.9417 17.9424 26.7743C17.7748 26.6069 17.6804 26.3798 17.68 26.1429ZM17.68 30.4286C17.68 29.9357 18.0786 29.5357 18.5714 29.5357H24.2857C24.5138 29.5483 24.7285 29.6476 24.8856 29.8134C25.0428 29.9792 25.1306 30.1988 25.1309 30.4272C25.1313 30.6557 25.0442 30.8756 24.8876 31.0419C24.731 31.2081 24.5166 31.3082 24.2886 31.3214H18.5743C18.3374 31.3214 18.1101 31.2274 17.9424 31.06C17.7748 30.8926 17.6804 30.6655 17.68 30.4286ZM20.6514 20.62C19.6514 20.62 18.7386 20.9957 18.0486 21.6143C17.6386 21.9814 17.9586 22.5714 18.5086 22.5714H22.7914C23.3429 22.5714 23.6629 21.9814 23.2529 21.6143C22.5379 20.9726 21.6121 20.6184 20.6514 20.62Z" fill="#969696"/>
</svg>
