<svg width="48" height="48" viewBox="0 0 48 48" fill="none" xmlns="http://www.w3.org/2000/svg">
<rect width="47.5" height="47.5" rx="14.64" fill="white" fill-opacity="0.07"/>
<path d="M28.6667 14C29.1087 14 29.5326 14.1756 29.8452 14.4882C30.1577 14.8007 30.3333 15.2246 30.3333 15.6667V29C30.3333 29.442 30.1577 29.8659 29.8452 30.1785C29.5326 30.4911 29.1087 30.6667 28.6667 30.6667H18.6667C18.2246 30.6667 17.8007 30.4911 17.4882 30.1785C17.1756 29.8659 17 29.442 17 29V15.6667C17 15.2246 17.1756 14.8007 17.4882 14.4882C17.8007 14.1756 18.2246 14 18.6667 14H28.6667ZM23.6667 23.1667H21.1667C20.9457 23.1667 20.7337 23.2545 20.5774 23.4107C20.4211 23.567 20.3333 23.779 20.3333 24C20.3333 24.221 20.4211 24.433 20.5774 24.5893C20.7337 24.7455 20.9457 24.8333 21.1667 24.8333H23.6667C23.8877 24.8333 24.0996 24.7455 24.2559 24.5893C24.4122 24.433 24.5 24.221 24.5 24C24.5 23.779 24.4122 23.567 24.2559 23.4107C24.0996 23.2545 23.8877 23.1667 23.6667 23.1667ZM26.1667 19H21.1667C20.9543 19.0002 20.75 19.0816 20.5955 19.2274C20.4411 19.3732 20.3481 19.5725 20.3357 19.7845C20.3232 19.9965 20.3922 20.2053 20.5286 20.3682C20.6649 20.5311 20.8583 20.6357 21.0692 20.6608L21.1667 20.6667H26.1667C26.3791 20.6664 26.5834 20.5851 26.7378 20.4393C26.8923 20.2935 26.9852 20.0942 26.9976 19.8822C27.0101 19.6701 26.9411 19.4614 26.8048 19.2985C26.6685 19.1356 26.4751 19.0309 26.2642 19.0058L26.1667 19Z" fill="#969696"/>
</svg>
