<svg width="48" height="48" viewBox="0 0 48 48" fill="none" xmlns="http://www.w3.org/2000/svg">
<rect width="47.5" height="47.5" rx="14.64" fill="white" fill-opacity="0.07"/>
<path d="M18.5625 15C17.6992 15 17 15.7 17 16.5625V30.9375C17 31.8 17.7 32.5 18.5625 32.5H29.1875C30.05 32.5 30.75 31.8 30.75 30.9375V24.375C30.75 23.5462 30.4208 22.7513 29.8347 22.1653C29.2487 21.5792 28.4538 21.25 27.625 21.25H26.0625C25.6481 21.25 25.2507 21.0854 24.9576 20.7924C24.6646 20.4993 24.5 20.1019 24.5 19.6875V18.125C24.5 17.2962 24.1708 16.5013 23.5847 15.9153C22.9987 15.3292 22.2038 15 21.375 15H18.5625Z" fill="#969696"/>
<path d="M24.6841 15.2634C25.3728 16.0576 25.7514 17.0739 25.7499 18.1251V19.6876C25.7499 19.8601 25.8899 20.0001 26.0624 20.0001H27.6249C28.6761 19.9986 29.6924 20.3772 30.4866 21.0659C30.1199 19.6715 29.3895 18.3995 28.37 17.38C27.3505 16.3605 26.0785 15.6301 24.6841 15.2634Z" fill="#969696"/>
</svg>
