<svg width="40" height="40" viewBox="0 0 40 40" fill="none" xmlns="http://www.w3.org/2000/svg">
<path d="M21.7187 24.7267C23.7498 23.6461 25.3613 21.9172 26.2967 19.8152C27.2321 17.7132 27.4377 15.3588 26.8808 13.1265C26.3239 10.8941 25.0365 8.91215 23.2234 7.49579C21.4103 6.07943 19.1757 5.31006 16.8749 5.31006C14.5742 5.31006 12.3396 6.07943 10.5265 7.49579C8.71336 8.91215 7.42597 10.8941 6.86909 13.1265C6.31221 15.3588 6.51781 17.7132 7.45321 19.8152C8.3886 21.9172 10 23.6461 12.0312 24.7267C8.5937 25.7002 5.48745 27.7205 3.02963 30.647C2.87839 30.8382 2.80757 31.0808 2.83219 31.3233C2.85681 31.5659 2.97493 31.7893 3.1615 31.9462C3.34807 32.1031 3.58843 32.1811 3.83159 32.1638C4.07475 32.1464 4.30159 32.0351 4.46401 31.8533C7.67182 28.0377 12.0796 25.9377 16.8749 25.9377C21.6703 25.9377 26.0781 28.0377 29.2828 31.8533C29.3606 31.9517 29.4574 32.0335 29.5675 32.0938C29.6775 32.1541 29.7985 32.1917 29.9233 32.2044C30.0482 32.217 30.1743 32.2045 30.2942 32.1675C30.4141 32.1306 30.5254 32.0699 30.6214 31.9892C30.7174 31.9084 30.7963 31.8092 30.8533 31.6974C30.9103 31.5856 30.9442 31.4635 30.9531 31.3383C30.9621 31.2132 30.9458 31.0875 30.9052 30.9688C30.8647 30.85 30.8007 30.7406 30.7171 30.647C28.2593 27.7205 25.1562 25.7002 21.7187 24.7267ZM8.43745 15.6252C8.43745 13.9564 8.9323 12.3251 9.85942 10.9375C10.7865 9.54999 12.1043 8.46854 13.6461 7.82992C15.1878 7.19131 16.8843 7.02422 18.521 7.34978C20.1577 7.67534 21.6612 8.47894 22.8412 9.65894C24.0212 10.8389 24.8248 12.3424 25.1503 13.9791C25.4759 15.6158 25.3088 17.3123 24.6702 18.854C24.0316 20.3958 22.9501 21.7136 21.5626 22.6407C20.175 23.5678 18.5437 24.0627 16.8749 24.0627C14.6379 24.0602 12.4933 23.1704 10.9115 21.5886C9.32967 20.0068 8.43993 17.8622 8.43745 15.6252ZM39.2578 22.6252L38.3328 22.0923C38.4724 21.5396 38.4724 20.9607 38.3328 20.408L39.2578 19.8752C39.4732 19.7508 39.6305 19.546 39.695 19.3057C39.7595 19.0654 39.7258 18.8094 39.6015 18.5939C39.4772 18.3784 39.2724 18.2211 39.0321 18.1567C38.7918 18.0922 38.5357 18.1258 38.3203 18.2502L37.3937 18.7861C36.9855 18.3891 36.4851 18.0997 35.9374 17.9439V16.8752C35.9374 16.6265 35.8387 16.3881 35.6629 16.2122C35.487 16.0364 35.2486 15.9377 34.9999 15.9377C34.7513 15.9377 34.5128 16.0364 34.337 16.2122C34.1612 16.3881 34.0624 16.6265 34.0624 16.8752V17.9439C33.5148 18.0997 33.0144 18.3891 32.6062 18.7861L31.6796 18.2502C31.4641 18.1258 31.2081 18.0922 30.9678 18.1567C30.7275 18.2211 30.5227 18.3784 30.3984 18.5939C30.2741 18.8094 30.2404 19.0654 30.3049 19.3057C30.3694 19.546 30.5266 19.7508 30.7421 19.8752L31.6671 20.408C31.5274 20.9607 31.5274 21.5396 31.6671 22.0923L30.7421 22.6252C30.5266 22.7495 30.3694 22.9543 30.3049 23.1946C30.2404 23.4349 30.2741 23.6909 30.3984 23.9064C30.5227 24.1219 30.7275 24.2792 30.9678 24.3436C31.2081 24.4081 31.4641 24.3745 31.6796 24.2502L32.6062 23.7142C33.0144 24.1112 33.5148 24.4006 34.0624 24.5564V25.6252C34.0624 25.8738 34.1612 26.1123 34.337 26.2881C34.5128 26.4639 34.7513 26.5627 34.9999 26.5627C35.2486 26.5627 35.487 26.4639 35.6629 26.2881C35.8387 26.1123 35.9374 25.8738 35.9374 25.6252V24.5564C36.4851 24.4006 36.9855 24.1112 37.3937 23.7142L38.3203 24.2502C38.5357 24.3745 38.7918 24.4081 39.0321 24.3436C39.2724 24.2792 39.4772 24.1219 39.6015 23.9064C39.7258 23.6909 39.7595 23.4349 39.695 23.1946C39.6305 22.9543 39.4732 22.7495 39.2578 22.6252ZM34.9999 22.8127C34.6909 22.8127 34.3888 22.721 34.1319 22.5493C33.8749 22.3776 33.6746 22.1336 33.5564 21.8481C33.4381 21.5626 33.4072 21.2484 33.4675 20.9453C33.5278 20.6422 33.6766 20.3638 33.8951 20.1453C34.1136 19.9268 34.392 19.778 34.6951 19.7177C34.9982 19.6574 35.3124 19.6883 35.5979 19.8066C35.8834 19.9249 36.1274 20.1251 36.2991 20.3821C36.4708 20.639 36.5624 20.9411 36.5624 21.2502C36.5624 21.6646 36.3978 22.062 36.1048 22.355C35.8118 22.648 35.4143 22.8127 34.9999 22.8127Z" fill="white"/>
</svg>
